<?xml version="1.0" encoding="UTF-8"?>
<svg xmlns="http://www.w3.org/2000/svg" viewBox="0 0 250 250" xml:space="preserve">
  <defs>
    <style>
      .st0{fill:none;stroke:#ff6720;stroke-width:1.5;stroke-miterlimit:10;}
      .st1{fill:#222;}
      .st2{font-family:'Segoe UI', Tahoma, Geneva, Verdana, sans-serif;font-size:16px;letter-spacing:1px;}
      .st3{font-family:'Verdana-Bold', Verdana;font-weight:bold;}
      .st4{fill:#296335;}
      .st5{fill:#ff6720;}
      .st6{fill:#74c86e;}
      .st7{fill:#128038;}
    </style>
  </defs>
  <circle class="st0" cx="125" cy="125" r="120"/>
  <circle class="st0" cx="125" cy="125" r="105"/>
  <path id="textPath" fill="none" d="M37.2,125c0-48.4,39.3-87.8,87.8-87.8s87.8,39.3,87.8,87.8"/>
  <text class="st1 st2">
    <textPath href="#textPath" startOffset="50%" text-anchor="middle">Pradhan Mantri Jan Arogya Yojana</textPath>
  </text>
  <g transform="translate(125, 125) scale(0.65)">
    <g transform="translate(0, 30)">
      <path class="st4" d="M0,0c0,0-20.3-43.5-62.8-21.7s14.2,46.1,14.2,46.1L0,0z"/>
      <path class="st5" d="M0,0l48.6,24.3c0,0,17.4-44.1,6.1-51.5C39.4-38.3,0,0,0,0z"/>
      <path class="st6" d="M0,0c0,0-15-53.5-12.7-72.7C-10.4-91.8,0-112.9,0-112.9s10.4,21.1,12.7,40.1C15-53.5,0,0,0,0z"/>
      <path class="st7" d="M0,0c0,0,20.3-43.5,62.8-21.7c42.5,21.7-14.2,46.1-14.2,46.1L0,0z"/>
      <path class="st5" d="M0,0L-48.6,24.3c0,0-17.4-44.1-6.1-51.5C-40.4-38.3,0,0,0,0z"/>
    </g>
    <circle class="st5" cx="0" cy="5" r="23"/>
    <path class="st5" d="M0,5c-21.1,0-32.9,32-20.8,55c11.3,21.4,50.4,21.4,61.7,0C52.9,37,41.1,5,20.8,5H0z M20.8,33.1c-13.8,0-25-11.2-25-25s11.2-25,25-25s25,11.2,25,25S34.7,33.1,20.8,33.1z"/>
    <ellipse class="st5" cx="0" cy="95" rx="35" ry="18"/>
  </g>
  <text transform="matrix(1 0 0 1 125 185)" class="st7 st3" font-size="20px" text-anchor="middle">Ayushman Bharat</text>
  <text transform="matrix(1 0 0 1 125 215)" class="st1 st3" font-size="26px" text-anchor="middle">PM-JAY</text>
</svg>